<?xml version="1.0" standalone="no"?>
<!DOCTYPE svg PUBLIC "-//W3C//DTD SVG 20010904//EN"
 "http://www.w3.org/TR/2001/REC-SVG-20010904/DTD/svg10.dtd">
<svg version="1.0" xmlns="http://www.w3.org/2000/svg"
 width="495.000000pt" height="495.000000pt" viewBox="0 0 495.000000 495.000000"
 preserveAspectRatio="xMidYMid meet">
<metadata>
Created by potrace 1.14, written by Peter Selinger 2001-2017
</metadata>
<g transform="translate(0.000000,495.000000) scale(0.100000,-0.100000)"
fill="#000000" stroke="none">
<path d="M1590 3800 c-12 -8 -9 -16 21 -47 20 -21 52 -54 70 -74 19 -20 107
-112 196 -205 89 -93 185 -194 214 -224 55 -59 148 -155 434 -455 99 -103 198
-207 220 -230 22 -23 110 -115 195 -204 85 -90 157 -167 158 -172 15 -40 18
55 17 504 l0 512 -140 1 -140 1 0 -334 c0 -183 -2 -333 -5 -333 -3 0 -25 22
-50 49 -25 27 -117 124 -205 216 -88 92 -182 191 -210 220 -116 122 -414 433
-469 489 -32 34 -108 114 -169 179 -61 64 -113 117 -116 117 -3 0 -13 -5 -21
-10z"/>
<path d="M1840 3340 c-6 -159 1 -1575 8 -1582 9 -9 261 -12 270 -3 3 2 5 204
5 447 l0 442 116 -120 c64 -67 195 -203 291 -304 96 -101 195 -204 220 -230
25 -26 114 -120 199 -208 85 -89 157 -162 161 -162 4 0 6 72 6 161 -1 88 2
163 5 165 3 2 63 -56 132 -129 141 -148 208 -218 344 -360 60 -63 100 -97 109
-93 8 3 14 10 14 15 0 11 -4 14 -238 260 -92 96 -185 193 -207 216 -22 23
-116 123 -210 220 -93 98 -188 197 -210 220 -22 23 -110 116 -196 206 -87 90
-186 194 -220 230 -35 37 -131 137 -214 224 -305 320 -384 400 -385 385z"/>
</g>
</svg>
